<svg xmlns="http://www.w3.org/2000/svg" viewBox="0 0 32 32">
  <rect width="32" height="32" rx="8" fill="#1a6b3c"/>
  <path d="M16 26 C10 26 6 22 6 17 C6 11 10 7 16 7 C22 7 26 11 26 17 C26 21 23 24 20 25" fill="none" stroke="white" stroke-width="2.5" stroke-linecap="round"/>
  <path d="M20 25 C24 22 24 17 20 14 C17 11 12 12 11 16 C10 19 12 22 15 22 C17 22 19 20 18 18" fill="none" stroke="white" stroke-width="2" stroke-linecap="round"/>
  <path d="M18 18 C17 15 17 11 18 8" fill="none" stroke="white" stroke-width="2" stroke-linecap="round"/>
  <polygon points="18,4 13,10 23,10" fill="#86efac"/>
  <circle cx="13" cy="18" r="1.8" fill="#86efac"/>
</svg>